<svg xmlns="http://www.w3.org/2000/svg" width="25" height="7" viewBox="0 0 25 7" fill="none">
  <path class="svg dots" stroke="none" strokeWidth="1" d="M15.5556 3.5C15.5556 5.43472 13.9903 7 12.0556 7C10.1208 7 8.55556 5.43472 8.55556 3.5C8.55556 1.56528 10.1208 0 12.0556 0C13.9903 0 15.5556 1.56528 15.5556 3.5ZM20.6111 0C18.6764 0 17.1111 1.56528 17.1111 3.5C17.1111 5.43472 18.6764 7 20.6111 7C22.5458 7 24.1111 5.43472 24.1111 3.5C24.1111 1.56528 22.5458 0 20.6111 0ZM3.5 0C1.56528 0 0 1.56528 0 3.5C0 5.43472 1.56528 7 3.5 7C5.43472 7 7 5.43472 7 3.5C7 1.56528 5.43472 0 3.5 0Z" fill="#5C7E92"/>
</svg>