<svg xmlns="http://www.w3.org/2000/svg" width="44" height="44" viewBox="0 0 44 44" fill="none">
  <path class='svg question' stroke="none" strokeWidth="1" d="M31.1666 16.5C31.1666 14.0689 30.2008 11.7373 28.4817 10.0182C26.7626 8.29911 24.4311 7.33334 21.9999 7.33334C19.5688 7.33334 17.2372 8.29911 15.5181 10.0182C13.799 11.7373 12.8333 14.0689 12.8333 16.5C12.8333 16.9862 13.0264 17.4526 13.3702 17.7964C13.714 18.1402 14.1804 18.3333 14.6666 18.3333C15.1528 18.3333 15.6191 18.1402 15.9629 17.7964C16.3068 17.4526 16.4999 16.9862 16.4999 16.5C16.4999 15.4122 16.8225 14.3488 17.4268 13.4444C18.0312 12.5399 18.8902 11.835 19.8952 11.4187C20.9002 11.0024 22.006 10.8935 23.0729 11.1057C24.1398 11.3179 25.1198 11.8417 25.889 12.6109C26.6582 13.3801 27.182 14.3601 27.3942 15.427C27.6065 16.4939 27.4975 17.5998 27.0813 18.6048C26.665 19.6098 25.96 20.4687 25.0556 21.0731C24.1511 21.6774 23.0877 22 21.9999 22C21.5137 22 21.0474 22.1932 20.7036 22.537C20.3597 22.8808 20.1666 23.3471 20.1666 23.8333V27.5C20.1666 27.9862 20.3597 28.4526 20.7036 28.7964C21.0474 29.1402 21.5137 29.3333 21.9999 29.3333C22.4861 29.3333 22.9525 29.1402 23.2963 28.7964C23.6401 28.4526 23.8333 27.9862 23.8333 27.5V25.4833C25.9038 25.0607 27.7646 23.9357 29.101 22.2987C30.4373 20.6617 31.167 18.6132 31.1666 16.5Z" fill="#5C7E92"/>
  <path class='svg question' stroke="none" strokeWidth="1" d="M21.9998 36.6667C23.0124 36.6667 23.8332 35.8459 23.8332 34.8333C23.8332 33.8208 23.0124 33 21.9998 33C20.9873 33 20.1665 33.8208 20.1665 34.8333C20.1665 35.8459 20.9873 36.6667 21.9998 36.6667Z" fill="#5C7E92"/>
</svg>