<svg width="548" height="682" viewBox="0 0 548 682" fill="none" xmlns="http://www.w3.org/2000/svg">
<path d="M416.019 587.638C384.494 565.941 377.352 525.664 378.597 489.449C378.801 483.417 378.128 477.022 381.046 471.734C383.963 466.445 390.779 462.806 396.267 465.339C400.818 467.451 402.797 472.679 405.348 477.002C408.751 482.76 413.738 487.452 419.733 490.535C423.63 492.546 428.466 493.752 432.323 491.661C437.628 488.786 438.24 481.607 438.199 475.575C438.199 464.354 438.131 453.147 437.995 441.953C437.629 435.943 438.249 429.913 439.832 424.097C441.729 418.386 445.953 413.098 451.728 411.489C457.502 409.881 464.705 413.198 466.011 419.07C466.236 421.557 466.297 424.056 466.195 426.55C466.358 429.064 467.541 431.819 469.929 432.583C472.316 433.347 474.805 431.598 476.642 429.828C482.926 423.796 487.211 415.933 491.19 408.171C495.169 400.41 499.067 392.427 504.78 385.811C510.493 379.195 518.39 373.947 527.225 373.444C536.06 372.942 545.263 378.29 547.467 386.736C549.67 395.181 544.671 403.808 539.305 410.665C531.207 420.843 521.661 429.817 510.963 437.308C508.874 438.432 507.208 440.187 506.208 442.315C504.882 446.337 508.738 450.359 512.758 451.625C517.308 453.114 522.246 452.651 527.041 453.214C531.837 453.777 536.938 455.828 538.754 460.252C541.243 466.405 536.02 472.84 530.898 477.062C520.614 485.508 508.936 492.153 496.373 496.708C491.884 498.317 487.171 499.745 483.539 502.841C479.907 505.938 477.744 511.347 479.927 515.59C482.11 519.833 487.722 521.18 492.435 520.316C497.149 519.451 501.332 516.957 505.821 515.288C514.207 512.172 525.021 512.735 530.306 519.873C531.944 522.332 532.98 525.132 533.334 528.052C533.688 530.972 533.35 533.934 532.347 536.704C530.305 542.216 527.161 547.269 523.103 551.564C509.739 567.299 492.375 579.255 472.785 586.21C453.34 592.846 435.322 594.656 415.999 587.678" fill="#C996CC"/>
<path d="M538.489 378.411C538.489 378.411 538.305 378.612 537.897 378.974L536.081 380.563C534.489 381.97 532.143 384.021 529.184 386.736C520.795 394.412 513.006 402.7 505.882 411.529C501.332 417.099 496.618 423.413 491.599 430.27C486.579 437.127 481.396 444.527 476.254 452.39C470.772 460.681 465.752 469.259 461.216 478.088C458.849 482.693 456.768 487.499 454.625 492.405L448.3 507.386C439.962 526.256 432.7 545.57 426.548 565.237C421.593 581.33 418.177 597.844 416.346 614.563C415.159 625.847 414.968 637.21 415.774 648.526C416.101 652.548 416.407 655.624 416.693 657.716C416.815 658.721 416.897 659.525 416.978 660.109V660.933C416.891 660.671 416.829 660.402 416.795 660.129C416.693 659.546 416.57 658.761 416.407 657.756C416.04 655.745 415.652 652.568 415.285 648.546C414.3 637.209 414.369 625.807 415.489 614.483C417.207 597.692 420.548 581.101 425.467 564.936C431.567 545.213 438.809 525.85 447.157 506.943L453.646 492.023C455.788 487.137 457.89 482.291 460.277 477.666C464.845 468.81 469.906 460.211 475.438 451.907C480.662 443.864 485.926 436.584 490.884 429.788C495.843 422.991 500.638 416.637 505.168 411.087C512.364 402.281 520.258 394.05 528.776 386.474C531.796 383.8 534.204 381.789 535.836 380.442L537.734 378.934C537.966 378.734 538.219 378.559 538.489 378.411Z" fill="#263238"/>
<path d="M460.542 477.626C460.255 476.797 460.056 475.941 459.951 475.072C459.624 473.403 459.257 471.05 458.828 467.994C457.951 461.961 457.053 453.697 456.094 444.547C455.135 435.398 454.054 427.113 453.156 421.141C452.687 418.165 452.279 415.772 451.993 414.103C451.77 413.249 451.653 412.371 451.646 411.489C451.997 412.295 452.251 413.139 452.401 414.003C452.85 415.652 453.36 418.025 453.931 421.021C455.094 427.053 456.237 435.257 457.196 444.427C458.155 453.596 458.971 461.639 459.604 467.893C459.91 470.708 460.175 473.101 460.379 475.011C460.538 475.874 460.592 476.751 460.542 477.626Z" fill="#263238"/>
<path d="M539.06 463.188C538.067 463.401 537.056 463.522 536.04 463.55C534 463.731 531.102 463.972 527.511 464.374C520.329 465.138 510.453 466.546 499.618 468.557C488.783 470.568 479.05 472.84 472.051 474.589C468.562 475.474 465.746 476.278 463.889 476.821C462.898 477.168 461.872 477.411 460.829 477.545C461.772 477.078 462.755 476.694 463.767 476.399C465.685 475.735 468.46 474.81 471.929 473.825C478.887 471.814 488.62 469.421 499.496 467.37C508.708 465.634 518.004 464.359 527.348 463.55C530.96 463.248 533.878 463.127 535.918 463.087C536.966 463.017 538.019 463.051 539.06 463.188Z" fill="#263238"/>
<path d="M426.466 563.528C426.249 563.237 426.071 562.919 425.936 562.583L424.589 559.788C423.426 557.355 421.855 553.756 419.978 549.352C416.183 540.504 411.347 528.118 406.205 514.363C401.063 500.609 396.329 488.223 392.737 479.274C390.983 474.931 389.534 471.372 388.453 468.718L387.31 465.842C387.151 465.511 387.042 465.158 386.983 464.796C387.201 465.088 387.379 465.405 387.514 465.742L388.861 468.537C390.003 470.97 391.595 474.569 393.472 478.973C397.267 487.821 402.103 500.207 407.245 513.961C412.387 527.715 417.121 540.102 420.712 549.05C422.467 553.394 423.916 556.953 424.977 559.607C425.446 560.753 425.834 561.618 426.14 562.483C426.298 562.814 426.408 563.166 426.466 563.528Z" fill="#263238"/>
<path d="M530.694 530.41C530.367 530.595 530.017 530.737 529.653 530.832L526.634 531.838L515.472 535.397C506.045 538.413 493.027 542.716 478.744 547.462C464.46 552.207 451.381 556.43 441.893 559.245C437.159 560.673 433.302 561.759 430.629 562.483L427.548 563.267C427.19 563.379 426.821 563.453 426.446 563.488C426.773 563.303 427.123 563.161 427.487 563.066L430.507 562.06L441.668 558.501C451.095 555.485 464.113 551.182 478.397 546.436C492.68 541.691 505.739 537.468 515.227 534.653C519.982 533.225 523.818 532.139 526.511 531.415L529.592 530.631C529.95 530.519 530.32 530.445 530.694 530.41Z" fill="#263238"/>
<path d="M488.17 42.6424L477.662 46.3423L473.153 32.8094C464.868 7.855 438.465 -5.39638 414.203 3.029C389.942 11.4544 377.026 38.8218 385.31 63.7762L389.82 77.3091L379.27 81.0292C375.248 82.5668 371.981 85.5729 370.149 89.4226C368.318 93.2724 368.062 97.6697 369.435 101.701L398.675 189.755C399.282 191.75 400.29 193.605 401.639 195.209C402.987 196.813 404.649 198.134 406.526 199.092C408.403 200.051 410.456 200.628 412.564 200.789C414.671 200.95 416.79 200.692 418.794 200.03L527.694 161.643C531.77 160.109 535.083 157.076 536.936 153.183C538.79 149.29 539.039 144.841 537.632 140.771L508.371 52.7167C507.748 50.7268 506.725 48.881 505.363 47.2894C504.001 45.6978 502.327 44.3929 500.441 43.4527C498.556 42.5124 496.498 41.9561 494.39 41.8169C492.281 41.6777 490.166 41.9584 488.17 42.6424ZM405.164 56.7182C402.93 50.2297 403.331 43.141 406.283 36.9374C409.235 30.7337 414.508 25.8964 420.998 23.4389C424.203 22.3584 427.596 21.9251 430.974 22.1649C434.352 22.4046 437.647 23.3126 440.662 24.8346C443.676 26.3566 446.349 28.4614 448.52 31.0234C450.691 33.5855 452.316 36.5523 453.299 39.7468L457.788 53.2797L409.653 70.2511L405.164 56.7182ZM466.378 134.859L473.846 157.34C473.983 157.791 473.939 158.277 473.723 158.696C473.506 159.115 473.134 159.436 472.683 159.592L462.216 163.272C461.799 163.386 461.354 163.337 460.974 163.134C460.593 162.932 460.307 162.592 460.175 162.186L452.646 139.806C448.494 139.583 444.511 138.115 441.229 135.6C437.947 133.084 435.523 129.641 434.282 125.73C432.507 120.56 432.831 114.914 435.185 109.974C437.539 105.034 441.742 101.183 446.912 99.2272C449.465 98.3676 452.167 98.0234 454.858 98.2149C457.549 98.4064 460.173 99.1298 462.574 100.342C464.975 101.554 467.104 103.23 468.834 105.27C470.564 107.311 471.859 109.673 472.642 112.217C473.955 116.19 474.064 120.453 472.955 124.486C471.846 128.518 469.567 132.144 466.399 134.919L466.378 134.859Z" fill="#C996CC"/>
<path d="M477.193 46.101C477.193 46.3825 457.706 53.6014 433.466 62.1877C409.225 70.7739 389.453 77.6711 389.35 77.47C389.248 77.2689 408.837 69.9897 433.098 61.3833C457.359 52.777 477.091 45.8396 477.193 46.101Z" fill="#263238"/>
<path d="M500.332 49.801C500.422 49.9755 500.497 50.1571 500.556 50.3439C500.72 50.746 500.903 51.2689 501.148 51.9123C501.679 53.3802 502.413 55.4112 503.331 57.9448L511.167 80.4259C514.432 89.9573 518.329 101.258 522.655 113.806C524.695 120.1 527.103 126.655 529.347 133.552C530.549 137.106 531.068 140.85 530.878 144.592C530.705 146.537 530.143 148.43 529.225 150.162C528.244 151.887 526.935 153.41 525.368 154.646C522.216 156.913 518.717 158.672 515.003 159.854L504.494 163.574L484.6 170.592L450.912 182.415L428.16 190.298L422.039 192.309L420.406 192.831C420.232 192.908 420.046 192.956 419.855 192.972C419.855 192.972 420.019 192.972 420.366 192.731L421.957 192.108L428.079 189.835L450.707 181.631L484.335 169.566L504.188 162.488L514.697 158.748C518.305 157.614 521.703 155.909 524.756 153.701C526.214 152.554 527.433 151.14 528.348 149.538C529.212 147.937 529.733 146.178 529.878 144.37C530.066 140.765 529.568 137.158 528.409 133.733C526.205 126.896 523.879 120.281 521.777 113.987C517.533 101.419 513.615 90.0779 510.514 80.5466C507.412 71.0152 504.8 63.354 503.005 57.9649C502.148 55.3308 501.495 53.2797 500.964 51.7917L500.475 50.183C500.413 50.0612 500.365 49.9331 500.332 49.801Z" fill="#263238"/>
<path d="M442.872 22.0716C442.872 22.0716 441.791 21.5488 439.791 20.7444C436.941 19.6652 433.926 19.0669 430.874 18.9749C426.35 18.822 421.848 19.6599 417.693 21.4281C412.639 23.6299 408.318 27.1913 405.225 31.7035C402.112 36.2028 400.441 41.5198 400.43 46.9657C400.473 51.4292 401.16 55.864 402.471 60.1366C403.532 63.7963 404.634 66.7121 405.368 68.743C405.801 69.7746 406.156 70.8366 406.429 71.9201C405.85 70.9556 405.364 69.9389 404.98 68.8838C404.144 66.8729 402.94 64.0175 401.756 60.3377C400.304 56.0202 399.513 51.5132 399.41 46.9657C399.356 41.3141 401.065 35.7825 404.307 31.1203C407.508 26.4433 412.005 22.7718 417.264 20.5433C421.549 18.7654 426.192 17.9812 430.833 18.251C433.951 18.4076 437.015 19.1231 439.872 20.3624C440.637 20.7098 441.373 21.1131 442.076 21.5689C442.366 21.6945 442.635 21.8642 442.872 22.0716Z" fill="#263238"/>
<path d="M443.81 100.755C444.136 100.561 444.477 100.393 444.831 100.253C445.852 99.7985 446.91 99.4286 447.994 99.1468C449.713 98.6466 451.487 98.3495 453.278 98.262C455.714 98.133 458.152 98.4957 460.44 99.3278C465.664 101.138 470.459 106.386 472.826 113.404C473.961 117.17 473.961 121.18 472.826 124.946C471.567 129.033 469.312 132.755 466.256 135.784L466.378 135.241C469.092 142.581 472.051 150.544 475.112 158.848L475.295 159.351L474.785 159.532L470.112 161.06L459.91 164.418L459.4 164.579L459.237 164.077C456.441 155.752 453.38 147.99 451.075 140.369L451.524 140.711C447.534 140.384 443.731 138.909 440.587 136.468C437.742 134.308 435.409 131.564 433.751 128.424C432.255 125.641 431.51 122.525 431.588 119.376C431.682 116.157 432.498 112.999 433.976 110.128C435.454 107.256 437.558 104.742 440.138 102.766C441.199 101.917 442.391 101.238 443.668 100.755C442.515 101.429 441.398 102.161 440.321 102.947C437.488 105.31 435.317 108.349 434.016 111.775C432.9 114.358 432.378 117.153 432.487 119.958C432.596 122.764 433.335 125.511 434.649 128.002C436.279 131.022 438.556 133.657 441.321 135.724C444.321 138.044 447.947 139.443 451.748 139.745H452.095L452.197 140.047C454.441 147.527 457.523 155.35 460.359 163.715L459.685 163.393L469.888 160.035L474.54 158.486L474.214 159.17C471.173 150.865 468.235 142.882 465.542 135.543V135.241L465.786 135C468.753 132.096 470.965 128.53 472.234 124.604C473.317 121.001 473.317 117.167 472.234 113.564C470.01 106.808 465.419 101.68 460.44 99.8707C458.237 99.0332 455.884 98.6434 453.523 98.7245C451.761 98.7643 450.008 99.0004 448.3 99.4283C445.259 100.172 443.831 100.856 443.81 100.755Z" fill="#263238"/>
<path d="M380.739 681.363L176.916 680.438C165.146 680.374 153.882 675.709 145.599 667.467C137.316 659.225 132.691 648.081 132.74 636.481L134.903 132.949C134.927 127.202 136.1 121.516 138.355 116.216C140.61 110.917 143.903 106.107 148.046 102.062C152.188 98.0168 157.099 94.816 162.498 92.6424C167.896 90.4689 173.676 89.3651 179.508 89.3942L383.31 90.3192C395.081 90.3777 406.347 95.0377 414.634 103.276C422.92 111.514 427.55 122.656 427.507 134.256L425.344 637.768C425.32 643.517 424.147 649.205 421.893 654.507C419.638 659.809 416.346 664.621 412.204 668.669C408.062 672.718 403.151 675.922 397.753 678.1C392.354 680.278 386.573 681.387 380.739 681.363Z" fill="#455A64"/>
<path d="M383.005 107.632H343.501C342.212 107.656 340.94 107.93 339.759 108.438C338.577 108.945 337.509 109.678 336.614 110.593C335.72 111.508 335.017 112.588 334.546 113.77C334.075 114.953 333.846 116.215 333.87 117.486V124.544C333.894 125.813 333.664 127.074 333.193 128.256C332.722 129.437 332.019 130.516 331.124 131.429C330.23 132.342 329.161 133.073 327.979 133.579C326.798 134.085 325.527 134.356 324.239 134.377L247.231 134.035C244.626 133.966 242.155 132.882 240.361 131.019C238.567 129.157 237.596 126.669 237.661 124.101V117.043C237.727 114.479 236.759 111.994 234.969 110.132C233.179 108.27 230.714 107.183 228.112 107.11H214.216L179.63 106.949C171.404 106.901 163.493 110.067 157.631 115.754C151.768 121.441 148.431 129.186 148.35 137.292L146.309 628.78C146.291 632.802 147.076 636.788 148.62 640.51C150.165 644.233 152.438 647.619 155.31 650.476C158.183 653.333 161.598 655.604 165.361 657.161C169.125 658.717 173.162 659.527 177.243 659.546L380.638 660.47C384.721 660.489 388.769 659.715 392.549 658.192C396.329 656.669 399.767 654.427 402.668 651.594C405.569 648.762 407.875 645.394 409.456 641.683C411.036 637.972 411.858 633.991 411.877 629.966L413.918 138.479C413.967 130.349 410.738 122.533 404.941 116.749C399.144 110.965 391.254 107.686 383.005 107.632Z" fill="#222831"/>
<path d="M355.99 594.897L204.75 594.254C203.179 594.254 201.914 592.565 201.934 590.514L202.098 551.524C202.098 549.513 203.383 547.784 204.954 547.784L356.194 548.467C357.065 548.616 357.844 549.089 358.368 549.79C358.893 550.491 359.123 551.364 359.01 552.227L358.867 591.177C358.867 593.248 357.561 594.917 355.99 594.897Z" fill="#C996CC"/>
<path d="M262.699 575.46C262.277 575.46 261.87 575.392 261.48 575.257C261.095 575.116 260.797 574.937 260.585 574.72L260.821 574.256C261.022 574.452 261.29 574.617 261.626 574.752C261.968 574.883 262.325 574.948 262.699 574.948C263.057 574.948 263.347 574.904 263.569 574.817C263.797 574.725 263.962 574.603 264.065 574.452C264.174 574.3 264.228 574.132 264.228 573.947C264.228 573.725 264.163 573.546 264.033 573.411C263.908 573.275 263.743 573.17 263.537 573.094C263.331 573.012 263.103 572.942 262.854 572.882C262.605 572.823 262.355 572.76 262.106 572.695C261.856 572.625 261.626 572.533 261.415 572.419C261.209 572.305 261.041 572.156 260.911 571.972C260.786 571.782 260.724 571.535 260.724 571.232C260.724 570.95 260.797 570.692 260.943 570.459C261.095 570.221 261.325 570.031 261.634 569.89C261.943 569.744 262.339 569.67 262.821 569.67C263.141 569.67 263.458 569.716 263.773 569.809C264.087 569.895 264.358 570.017 264.586 570.175L264.383 570.654C264.139 570.492 263.878 570.372 263.602 570.296C263.331 570.221 263.068 570.183 262.813 570.183C262.472 570.183 262.19 570.229 261.968 570.321C261.745 570.413 261.58 570.538 261.472 570.695C261.369 570.847 261.317 571.02 261.317 571.215C261.317 571.438 261.379 571.616 261.504 571.752C261.634 571.888 261.802 571.993 262.008 572.069C262.22 572.145 262.45 572.213 262.699 572.272C262.949 572.332 263.195 572.397 263.439 572.468C263.689 572.538 263.916 572.63 264.122 572.744C264.334 572.852 264.502 572.999 264.627 573.183C264.757 573.367 264.822 573.609 264.822 573.907C264.822 574.183 264.746 574.441 264.594 574.679C264.442 574.912 264.209 575.102 263.895 575.248C263.586 575.389 263.187 575.46 262.699 575.46ZM266.133 575.411V569.719H266.734V575.411H266.133ZM268.586 575.411V569.719H269.082L273.01 574.663H272.75V569.719H273.343V575.411H272.847L268.928 570.467H269.188V575.411H268.586ZM277.697 575.46C277.264 575.46 276.863 575.389 276.494 575.248C276.131 575.102 275.814 574.899 275.543 574.639C275.277 574.378 275.068 574.072 274.916 573.72C274.77 573.367 274.697 572.983 274.697 572.565C274.697 572.148 274.77 571.763 274.916 571.41C275.068 571.058 275.28 570.752 275.551 570.492C275.822 570.231 276.139 570.031 276.502 569.89C276.871 569.744 277.272 569.67 277.705 569.67C278.139 569.67 278.535 569.738 278.893 569.874C279.256 570.009 279.565 570.215 279.82 570.492L279.446 570.874C279.207 570.635 278.944 570.465 278.657 570.362C278.37 570.259 278.061 570.207 277.73 570.207C277.378 570.207 277.052 570.267 276.754 570.386C276.461 570.5 276.204 570.665 275.982 570.882C275.765 571.093 275.594 571.343 275.469 571.63C275.35 571.912 275.29 572.224 275.29 572.565C275.29 572.901 275.35 573.213 275.469 573.5C275.594 573.788 275.765 574.04 275.982 574.256C276.204 574.468 276.461 574.633 276.754 574.752C277.052 574.866 277.375 574.923 277.722 574.923C278.047 574.923 278.353 574.874 278.641 574.777C278.933 574.679 279.202 574.514 279.446 574.281L279.787 574.736C279.516 574.975 279.199 575.156 278.836 575.281C278.473 575.4 278.093 575.46 277.697 575.46ZM279.21 574.663V572.565H279.787V574.736L279.21 574.663ZM285.911 575.46C285.185 575.46 284.613 575.251 284.196 574.834C283.778 574.416 283.569 573.798 283.569 572.98V569.719H284.171V572.955C284.171 573.628 284.323 574.124 284.626 574.443C284.93 574.763 285.358 574.923 285.911 574.923C286.47 574.923 286.901 574.763 287.204 574.443C287.508 574.124 287.659 573.628 287.659 572.955V569.719H288.245V572.98C288.245 573.798 288.036 574.416 287.619 574.834C287.207 575.251 286.638 575.46 285.911 575.46ZM290.058 575.411V569.719H292.188C292.671 569.719 293.086 569.798 293.433 569.955C293.78 570.107 294.045 570.329 294.229 570.622C294.419 570.909 294.514 571.259 294.514 571.671C294.514 572.072 294.419 572.419 294.229 572.711C294.045 572.999 293.78 573.221 293.433 573.378C293.086 573.535 292.671 573.614 292.188 573.614H290.391L290.66 573.329V575.411H290.058ZM290.66 573.378L290.391 573.086H292.172C292.741 573.086 293.172 572.964 293.465 572.72C293.763 572.47 293.912 572.121 293.912 571.671C293.912 571.215 293.763 570.863 293.465 570.614C293.172 570.364 292.741 570.24 292.172 570.24H290.391L290.66 569.955V573.378Z" fill="#E8E8E3"/>
<path d="M234.568 252.111L182.088 251.876L182.044 261.368L234.525 261.602L234.568 252.111Z" fill="#C996CC"/>
<path opacity="0.1" d="M234.568 252.111L182.088 251.876L182.044 261.368L234.525 261.602L234.568 252.111Z" fill="black"/>
<path d="M388.412 310.385C388.824 310.344 389.229 310.249 389.616 310.103C390.18 309.886 390.671 309.515 391.032 309.035C391.393 308.555 391.609 307.984 391.656 307.389C391.656 304.191 391.656 299.526 391.656 293.534C391.656 290.538 391.656 287.18 391.656 283.48C391.656 282.575 391.656 281.63 391.656 280.685C391.789 279.768 391.587 278.834 391.085 278.05C390.804 277.675 390.438 277.369 390.017 277.156C389.596 276.943 389.13 276.829 388.657 276.824H385.473H355.989L185.323 276.201C184.887 276.193 184.454 276.29 184.064 276.482C183.673 276.675 183.335 276.958 183.079 277.306C182.586 278.093 182.398 279.028 182.548 279.941C182.548 281.952 182.548 283.962 182.548 285.973C182.548 289.995 182.548 294.017 182.548 298.038C182.548 300.049 182.548 302.06 182.548 304.071C182.464 305.007 182.464 305.949 182.548 306.886C182.656 307.287 182.855 307.659 183.131 307.973C183.407 308.287 183.752 308.534 184.14 308.696C184.542 308.853 184.972 308.929 185.405 308.917H195.791L241.11 309.158L317.832 309.621L369.558 310.023L383.617 310.184H387.269C388.106 310.184 388.514 310.184 388.514 310.184H387.269H383.617H369.558H317.832L241.11 309.942L195.791 309.761H185.405C184.833 309.784 184.263 309.688 183.732 309.48C183.195 309.254 182.717 308.91 182.335 308.474C181.953 308.039 181.677 307.523 181.528 306.966C181.41 306.439 181.369 305.897 181.406 305.358V303.87C181.406 301.859 181.406 299.848 181.406 297.837C181.406 293.815 181.406 289.794 181.406 285.772C181.406 283.761 181.406 281.75 181.406 279.74C181.367 279.204 181.367 278.666 181.406 278.131C181.482 277.539 181.714 276.978 182.079 276.502C182.431 276.017 182.897 275.622 183.437 275.353C183.977 275.083 184.575 274.946 185.181 274.954L355.846 275.879L385.331 276.08H388.514C389.075 276.08 389.627 276.214 390.124 276.469C390.622 276.725 391.049 277.095 391.37 277.548C391.946 278.422 392.178 279.473 392.023 280.504C392.023 281.449 392.023 282.394 392.023 283.299C392.023 286.958 392.023 290.317 392.023 293.353C392.023 299.385 391.881 304.01 391.84 307.228C391.79 307.846 391.562 308.438 391.182 308.933C390.803 309.428 390.287 309.806 389.697 310.023C389.311 310.259 388.866 310.384 388.412 310.385Z" fill="#E0E0E0"/>
<path d="M293.836 286.295H197.852V295.163H293.836V286.295Z" fill="#C996CC"/>
<path opacity="0.2" d="M293.836 286.295H197.852V295.163H293.836V286.295Z" fill="white"/>
<path d="M234.21 338.695L181.73 338.46L181.686 347.951L234.167 348.186L234.21 338.695Z" fill="#C996CC"/>
<path opacity="0.1" d="M234.21 338.695L181.73 338.46L181.686 347.951L234.167 348.186L234.21 338.695Z" fill="black"/>
<path d="M387.085 396.971C387.498 396.921 387.906 396.847 388.31 396.75C388.88 396.571 389.404 396.274 389.848 395.879C390.291 395.483 390.643 394.999 390.881 394.458C391.202 393.646 391.328 392.772 391.248 391.904C391.248 390.939 391.248 389.893 391.248 388.727C391.248 386.394 391.248 383.74 391.248 380.683V367.915C391.345 366.99 391.138 366.059 390.656 365.26C390.153 364.441 389.361 363.832 388.432 363.551C387.416 363.372 386.381 363.318 385.351 363.39H355.989L185.915 362.767C185 362.769 184.117 363.098 183.43 363.694C182.744 364.289 182.3 365.11 182.181 366.004C182.181 367.915 182.181 370.026 182.181 372.037C182.181 376.058 182.181 380.08 182.181 384.102C182.181 386.113 182.181 388.123 182.181 390.134C182.105 391.074 182.146 392.02 182.303 392.949C182.558 393.765 183.082 394.473 183.793 394.96C184.547 395.432 185.432 395.657 186.323 395.604H189.159H195.056L240.212 395.825L316.669 396.287L368.211 396.69L382.229 396.85H385.882H387.106H385.882H382.229H368.211H316.669L240.171 396.77L195.016 396.609H186.139C185.036 396.674 183.941 396.384 183.018 395.785C182.089 395.151 181.411 394.22 181.099 393.151C180.917 392.129 180.862 391.089 180.936 390.054C180.936 388.043 180.936 386.032 180.936 384.021C180.936 380 180.936 375.978 180.936 371.956C180.936 369.945 180.936 367.935 180.936 365.924C181.085 364.774 181.654 363.717 182.537 362.951C183.419 362.185 184.555 361.762 185.731 361.761L355.805 362.686L385.167 362.908C386.261 362.841 387.358 362.916 388.432 363.129C389.492 363.47 390.387 364.187 390.942 365.14C391.47 366.025 391.698 367.053 391.595 368.075C391.595 369.021 391.595 369.945 391.595 370.87C391.595 374.51 391.595 377.848 391.595 380.925C391.595 384.001 391.595 386.595 391.595 388.968C391.595 390.114 391.595 391.18 391.595 392.165C391.669 393.064 391.522 393.968 391.166 394.799C390.902 395.354 390.518 395.846 390.043 396.242C389.568 396.637 389.011 396.927 388.412 397.092C387.966 397.128 387.517 397.087 387.085 396.971Z" fill="#E0E0E0"/>
<path d="M233.815 429.039L181.334 428.804L181.291 438.295L233.771 438.53L233.815 429.039Z" fill="#C996CC"/>
<path opacity="0.1" d="M233.815 429.039L181.334 428.804L181.291 438.295L233.771 438.53L233.815 429.039Z" fill="black"/>
<path d="M386.677 487.278C387.09 487.23 387.498 487.156 387.901 487.056C388.469 486.879 388.991 486.584 389.435 486.193C389.878 485.801 390.232 485.321 390.472 484.784C390.792 483.972 390.918 483.098 390.84 482.23C390.84 481.245 390.84 480.22 390.84 479.033C390.84 476.721 390.84 474.046 390.84 470.99V458.221C390.937 457.297 390.73 456.366 390.248 455.567C389.733 454.762 388.945 454.164 388.024 453.878C387.008 453.692 385.973 453.631 384.943 453.697H355.58L185.507 453.073C184.592 453.075 183.709 453.405 183.022 454C182.335 454.596 181.891 455.417 181.773 456.311C181.773 458.322 181.773 460.332 181.773 462.343C181.773 466.365 181.773 470.387 181.773 474.408C181.773 476.419 181.773 478.43 181.773 480.441C181.697 481.374 181.738 482.313 181.895 483.236C182.139 484.056 182.666 484.767 183.385 485.247C184.134 485.729 185.023 485.955 185.915 485.89H194.791L239.947 486.131L316.403 486.594L367.946 486.996L381.964 487.157H385.616C386.432 487.157 386.84 487.157 386.84 487.157C386.84 487.157 386.432 487.157 385.616 487.157H381.964H367.946H316.403L239.947 486.936L194.791 486.755H185.915C184.81 486.828 183.712 486.538 182.793 485.93C181.864 485.297 181.187 484.366 180.875 483.296C180.692 482.274 180.637 481.234 180.712 480.199C180.712 478.189 180.712 476.178 180.712 474.167C180.712 470.145 180.712 466.124 180.712 462.102C180.712 460.091 180.712 458.08 180.712 455.969C180.856 454.821 181.421 453.764 182.3 452.998C183.179 452.231 184.312 451.807 185.486 451.806L355.56 452.731L384.922 452.953C386.016 452.887 387.113 452.961 388.187 453.174C389.247 453.515 390.141 454.232 390.697 455.185C391.225 456.07 391.453 457.098 391.35 458.12C391.35 459.066 391.35 460.011 391.35 460.916C391.35 464.555 391.35 467.893 391.35 470.97C391.35 474.046 391.35 476.64 391.35 479.013C391.35 480.159 391.35 481.225 391.35 482.21C391.428 483.11 391.281 484.014 390.921 484.844C390.656 485.399 390.273 485.891 389.798 486.287C389.323 486.683 388.766 486.972 388.167 487.137C387.688 487.298 387.178 487.346 386.677 487.278Z" fill="#E0E0E0"/>
<path d="M291.787 375.388L195.804 374.959L195.763 383.827L291.746 384.256L291.787 375.388Z" fill="#C996CC"/>
<path opacity="0.2" d="M291.787 375.388L195.804 374.959L195.763 383.827L291.746 384.256L291.787 375.388Z" fill="white"/>
<path d="M204.483 470.869C204.423 471.678 204.123 472.452 203.621 473.094C203.119 473.737 202.436 474.22 201.658 474.483C200.879 474.747 200.04 474.78 199.243 474.578C198.446 474.375 197.727 473.947 197.174 473.346C196.622 472.744 196.261 471.996 196.136 471.195C196.011 470.393 196.128 469.573 196.472 468.836C196.815 468.099 197.371 467.478 198.07 467.049C198.769 466.621 199.579 466.404 200.402 466.425C201.539 466.488 202.605 466.989 203.369 467.821C204.133 468.653 204.533 469.748 204.483 470.869Z" fill="#C996CC"/>
<path d="M217.481 470.93C217.521 471.496 217.443 472.065 217.25 472.601C217.058 473.137 216.755 473.628 216.362 474.043C215.969 474.459 215.493 474.79 214.964 475.017C214.435 475.243 213.865 475.36 213.288 475.36C212.711 475.36 212.141 475.243 211.612 475.017C211.083 474.79 210.607 474.459 210.214 474.043C209.821 473.628 209.518 473.137 209.326 472.601C209.133 472.065 209.055 471.496 209.095 470.93C209.055 470.363 209.133 469.794 209.326 469.258C209.518 468.722 209.821 468.231 210.214 467.816C210.607 467.4 211.083 467.069 211.612 466.842C212.141 466.616 212.711 466.499 213.288 466.499C213.865 466.499 214.435 466.616 214.964 466.842C215.493 467.069 215.969 467.4 216.362 467.816C216.755 468.231 217.058 468.722 217.25 469.258C217.443 469.794 217.521 470.363 217.481 470.93Z" fill="#C996CC"/>
<path d="M230.499 470.99C230.439 471.799 230.139 472.572 229.637 473.215C229.135 473.857 228.452 474.34 227.674 474.604C226.896 474.868 226.056 474.9 225.259 474.698C224.462 474.496 223.743 474.068 223.191 473.466C222.638 472.865 222.277 472.117 222.152 471.315C222.028 470.514 222.144 469.694 222.488 468.957C222.832 468.22 223.387 467.599 224.086 467.17C224.785 466.741 225.596 466.524 226.418 466.546C227.553 466.613 228.616 467.116 229.379 467.947C230.142 468.778 230.544 469.87 230.499 470.99Z" fill="#C996CC"/>
<path d="M243.497 471.05C243.437 471.859 243.137 472.633 242.635 473.275C242.133 473.918 241.45 474.401 240.672 474.664C239.894 474.928 239.054 474.961 238.257 474.758C237.46 474.556 236.741 474.128 236.189 473.527C235.636 472.925 235.275 472.177 235.15 471.376C235.026 470.574 235.142 469.754 235.486 469.017C235.83 468.28 236.385 467.659 237.084 467.23C237.783 466.802 238.594 466.585 239.416 466.606C240.551 466.674 241.614 467.177 242.377 468.007C243.14 468.838 243.542 469.931 243.497 471.05Z" fill="#C996CC"/>
<path d="M256.495 471.09C256.439 471.9 256.142 472.676 255.642 473.322C255.142 473.967 254.461 474.453 253.682 474.72C252.904 474.987 252.064 475.022 251.265 474.822C250.467 474.622 249.745 474.195 249.191 473.594C248.637 472.993 248.274 472.245 248.148 471.443C248.022 470.64 248.137 469.819 248.481 469.081C248.824 468.343 249.38 467.721 250.079 467.291C250.779 466.862 251.591 466.645 252.414 466.667C253.545 466.734 254.605 467.234 255.367 468.061C256.13 468.887 256.534 469.974 256.495 471.09Z" fill="#C996CC"/>
<path d="M269.513 471.151C269.458 471.957 269.164 472.729 268.669 473.372C268.173 474.016 267.498 474.503 266.726 474.773C265.953 475.043 265.117 475.085 264.321 474.893C263.525 474.701 262.803 474.284 262.244 473.693C261.686 473.102 261.314 472.363 261.176 471.567C261.038 470.771 261.139 469.952 261.467 469.212C261.795 468.472 262.336 467.842 263.022 467.4C263.708 466.959 264.511 466.725 265.33 466.727C266.48 466.769 267.565 467.258 268.349 468.087C269.133 468.916 269.552 470.018 269.513 471.151Z" fill="#C996CC"/>
<path d="M282.511 471.211C282.551 471.778 282.473 472.347 282.28 472.883C282.087 473.418 281.785 473.909 281.392 474.325C280.999 474.74 280.523 475.072 279.994 475.298C279.465 475.525 278.894 475.642 278.318 475.642C277.741 475.642 277.171 475.525 276.642 475.298C276.113 475.072 275.637 474.74 275.244 474.325C274.851 473.909 274.548 473.418 274.356 472.883C274.163 472.347 274.085 471.778 274.125 471.211C274.085 470.644 274.163 470.075 274.356 469.54C274.548 469.004 274.851 468.513 275.244 468.097C275.637 467.682 276.113 467.35 276.642 467.124C277.171 466.897 277.741 466.78 278.318 466.78C278.894 466.78 279.465 466.897 279.994 467.124C280.523 467.35 280.999 467.682 281.392 468.097C281.785 468.513 282.087 469.004 282.28 469.54C282.473 470.075 282.551 470.644 282.511 471.211Z" fill="#C996CC"/>
<path d="M295.509 471.271C295.453 472.077 295.16 472.849 294.664 473.493C294.169 474.137 293.494 474.623 292.721 474.894C291.949 475.164 291.113 475.205 290.317 475.014C289.521 474.822 288.799 474.405 288.24 473.814C287.681 473.223 287.31 472.484 287.172 471.688C287.034 470.891 287.135 470.073 287.463 469.333C287.791 468.592 288.331 467.963 289.018 467.521C289.704 467.08 290.506 466.845 291.326 466.848C292.475 466.889 293.561 467.379 294.345 468.208C295.129 469.037 295.548 470.139 295.509 471.271Z" fill="#C996CC"/>
<path d="M308.507 471.332C308.45 472.142 308.154 472.918 307.654 473.563C307.154 474.208 306.472 474.694 305.694 474.961C304.916 475.228 304.075 475.263 303.277 475.063C302.478 474.863 301.757 474.436 301.203 473.835C300.649 473.234 300.286 472.486 300.159 471.684C300.033 470.882 300.149 470.06 300.492 469.322C300.835 468.584 301.391 467.962 302.091 467.533C302.79 467.103 303.602 466.886 304.426 466.908C305.557 466.975 306.617 467.476 307.379 468.302C308.141 469.128 308.546 470.216 308.507 471.332Z" fill="#C996CC"/>
<g opacity="0.2">
<path opacity="0.2" d="M204.483 470.869C204.423 471.678 204.123 472.452 203.621 473.094C203.119 473.737 202.436 474.22 201.658 474.483C200.879 474.747 200.04 474.78 199.243 474.578C198.446 474.375 197.727 473.947 197.174 473.346C196.622 472.744 196.261 471.996 196.136 471.195C196.011 470.393 196.128 469.573 196.472 468.836C196.815 468.099 197.371 467.478 198.07 467.049C198.769 466.621 199.579 466.404 200.402 466.425C201.539 466.488 202.605 466.989 203.369 467.821C204.133 468.653 204.533 469.748 204.483 470.869Z" fill="white"/>
<path opacity="0.2" d="M217.481 470.93C217.521 471.496 217.443 472.065 217.25 472.601C217.057 473.137 216.755 473.628 216.362 474.043C215.969 474.459 215.493 474.79 214.964 475.017C214.435 475.243 213.864 475.36 213.288 475.36C212.711 475.36 212.141 475.243 211.612 475.017C211.083 474.79 210.607 474.459 210.214 474.043C209.821 473.628 209.518 473.137 209.326 472.601C209.133 472.065 209.055 471.496 209.095 470.93C209.055 470.363 209.133 469.794 209.326 469.258C209.518 468.722 209.821 468.231 210.214 467.816C210.607 467.4 211.083 467.069 211.612 466.842C212.141 466.616 212.711 466.499 213.288 466.499C213.864 466.499 214.435 466.616 214.964 466.842C215.493 467.069 215.969 467.4 216.362 467.816C216.755 468.231 217.057 468.722 217.25 469.258C217.443 469.794 217.521 470.363 217.481 470.93Z" fill="white"/>
<path opacity="0.2" d="M230.499 470.99C230.439 471.799 230.139 472.572 229.637 473.215C229.135 473.857 228.452 474.34 227.674 474.604C226.896 474.868 226.056 474.9 225.259 474.698C224.462 474.496 223.743 474.068 223.191 473.466C222.638 472.865 222.277 472.117 222.152 471.315C222.028 470.514 222.144 469.694 222.488 468.957C222.832 468.22 223.387 467.599 224.086 467.17C224.785 466.741 225.596 466.524 226.418 466.546C227.553 466.613 228.616 467.116 229.379 467.947C230.142 468.778 230.544 469.87 230.499 470.99Z" fill="white"/>
<path opacity="0.2" d="M243.497 471.05C243.437 471.859 243.137 472.633 242.635 473.275C242.133 473.918 241.45 474.401 240.672 474.664C239.894 474.928 239.054 474.961 238.257 474.758C237.46 474.556 236.741 474.128 236.189 473.527C235.636 472.925 235.275 472.177 235.15 471.376C235.026 470.574 235.142 469.754 235.486 469.017C235.83 468.28 236.385 467.659 237.084 467.23C237.783 466.802 238.594 466.585 239.416 466.606C240.551 466.674 241.614 467.177 242.377 468.008C243.14 468.838 243.542 469.931 243.497 471.05Z" fill="white"/>
<path opacity="0.2" d="M256.495 471.09C256.439 471.9 256.142 472.676 255.642 473.322C255.142 473.967 254.461 474.453 253.682 474.72C252.904 474.987 252.064 475.022 251.265 474.822C250.467 474.622 249.745 474.195 249.191 473.594C248.637 472.993 248.274 472.245 248.148 471.443C248.022 470.64 248.137 469.819 248.481 469.081C248.824 468.343 249.38 467.721 250.079 467.291C250.779 466.862 251.591 466.645 252.414 466.667C253.545 466.734 254.605 467.234 255.367 468.061C256.13 468.887 256.534 469.974 256.495 471.09Z" fill="white"/>
<path opacity="0.2" d="M269.513 471.151C269.457 471.957 269.164 472.729 268.669 473.372C268.173 474.016 267.498 474.503 266.725 474.773C265.953 475.043 265.117 475.085 264.321 474.893C263.525 474.701 262.803 474.284 262.244 473.693C261.685 473.102 261.314 472.363 261.176 471.567C261.038 470.771 261.139 469.952 261.467 469.212C261.795 468.472 262.335 467.842 263.022 467.4C263.708 466.959 264.51 466.725 265.33 466.727C266.479 466.769 267.565 467.258 268.349 468.087C269.133 468.916 269.552 470.018 269.513 471.151Z" fill="white"/>
<path opacity="0.2" d="M282.511 471.211C282.551 471.778 282.473 472.347 282.28 472.883C282.087 473.418 281.785 473.909 281.392 474.325C280.999 474.74 280.523 475.072 279.994 475.298C279.465 475.525 278.894 475.642 278.318 475.642C277.741 475.642 277.171 475.525 276.642 475.298C276.113 475.072 275.637 474.74 275.244 474.325C274.851 473.909 274.548 473.418 274.356 472.883C274.163 472.347 274.085 471.778 274.125 471.211C274.085 470.644 274.163 470.075 274.356 469.54C274.548 469.004 274.851 468.513 275.244 468.097C275.637 467.682 276.113 467.35 276.642 467.124C277.171 466.897 277.741 466.78 278.318 466.78C278.894 466.78 279.465 466.897 279.994 467.124C280.523 467.35 280.999 467.682 281.392 468.097C281.785 468.513 282.087 469.004 282.28 469.54C282.473 470.075 282.551 470.644 282.511 471.211Z" fill="white"/>
<path opacity="0.2" d="M295.509 471.271C295.453 472.077 295.159 472.849 294.664 473.493C294.169 474.137 293.493 474.623 292.721 474.894C291.948 475.164 291.113 475.205 290.317 475.014C289.52 474.822 288.798 474.405 288.24 473.814C287.681 473.223 287.31 472.484 287.172 471.688C287.034 470.891 287.135 470.073 287.463 469.333C287.791 468.592 288.331 467.963 289.017 467.521C289.704 467.08 290.506 466.846 291.326 466.848C292.475 466.89 293.56 467.379 294.344 468.208C295.129 469.037 295.547 470.139 295.509 471.271Z" fill="white"/>
<path opacity="0.2" d="M308.507 471.332C308.45 472.142 308.154 472.918 307.654 473.563C307.154 474.208 306.472 474.694 305.694 474.961C304.916 475.228 304.075 475.263 303.277 475.063C302.478 474.863 301.757 474.436 301.203 473.835C300.649 473.234 300.286 472.486 300.159 471.684C300.033 470.882 300.149 470.06 300.492 469.322C300.835 468.584 301.391 467.962 302.091 467.533C302.79 467.103 303.602 466.886 304.426 466.908C305.557 466.975 306.617 467.476 307.379 468.302C308.141 469.128 308.546 470.216 308.507 471.332Z" fill="white"/>
</g>
<path d="M290.04 181.048C291.458 180.433 292.66 179.42 293.498 178.137C294.336 176.853 294.773 175.355 294.754 173.829C294.807 172.837 294.654 171.845 294.305 170.913C293.956 169.98 293.418 169.128 292.724 168.407C292.03 167.687 291.195 167.113 290.269 166.721C289.342 166.328 288.345 166.126 287.337 166.126C286.328 166.126 285.331 166.328 284.405 166.721C283.478 167.113 282.643 167.687 281.949 168.407C281.255 169.128 280.717 169.98 280.368 170.913C280.019 171.845 279.867 172.837 279.919 173.829C279.888 175.371 280.321 176.887 281.164 178.186C282.006 179.485 283.221 180.509 284.653 181.128C273.227 182.817 273.737 195.043 273.737 195.043L300.753 195.164C300.753 195.164 301.385 182.717 290.04 181.048Z" fill="#C996CC"/>
<path opacity="0.1" d="M290.04 181.048C291.458 180.433 292.66 179.42 293.498 178.137C294.336 176.853 294.773 175.355 294.754 173.829C294.807 172.837 294.654 171.845 294.305 170.913C293.956 169.98 293.418 169.128 292.724 168.407C292.03 167.687 291.195 167.113 290.269 166.721C289.342 166.328 288.345 166.126 287.337 166.126C286.328 166.126 285.331 166.328 284.405 166.721C283.478 167.113 282.643 167.687 281.949 168.407C281.255 169.128 280.717 169.98 280.368 170.913C280.019 171.845 279.867 172.837 279.919 173.829C279.888 175.371 280.321 176.887 281.164 178.186C282.006 179.485 283.221 180.509 284.653 181.128C273.227 182.817 273.737 195.043 273.737 195.043L300.753 195.164C300.753 195.164 301.385 182.717 290.04 181.048Z" fill="black"/>
<path d="M333.94 203.049L237.651 202.619L237.599 213.96L333.888 214.39L333.94 203.049Z" fill="#C996CC"/>
<path opacity="0.2" d="M333.94 203.049L237.651 202.619L237.599 213.96L333.888 214.39L333.94 203.049Z" fill="white"/>
<path d="M44.9108 237.938H44.0941L41.7309 238.109C40.452 238.185 39.1802 238.351 37.9254 238.606C37.1126 238.718 36.3064 238.872 35.51 239.068L32.8166 239.804C28.2323 241.19 23.9071 243.301 20.01 246.055C14.861 249.738 10.5616 254.453 7.39445 259.891C5.53293 263.026 4.05155 266.365 2.98076 269.84C1.8556 273.618 1.20778 277.517 1.05195 281.451C0.948394 283.517 0.983218 285.588 1.15621 287.65C1.15621 288.694 1.45161 289.739 1.59063 290.801C1.70755 291.871 1.91092 292.93 2.19881 293.969C3.76136 300.84 6.93183 307.257 11.4573 312.706C15.9828 318.156 21.738 322.488 28.2639 325.357C32.9871 327.366 38.0495 328.487 43.1905 328.662C48.5004 328.95 53.8155 328.199 58.8296 326.453L60.3587 325.888H60.5672L60.741 325.991L82.6531 336.95L82.0101 337.498C79.6643 330.341 77.4053 323.405 75.2158 316.744V316.487L75.407 316.299C80.7225 311.022 84.6685 304.561 86.9103 297.462C88.9408 290.972 89.5334 284.128 88.648 277.392C87.8604 271.406 85.9075 265.627 82.8963 260.371C80.3008 255.856 76.9524 251.803 72.9916 248.384C69.7238 245.677 66.1071 243.408 62.2354 241.637C59.3059 240.392 56.2549 239.445 53.13 238.811L49.6546 238.246L47.135 238.058L45.6059 237.955H45.0846C45.2578 237.936 45.4326 237.936 45.6059 237.955H47.1524L49.672 238.058L53.1474 238.554C56.3112 239.142 59.4038 240.054 62.3744 241.277C66.3126 243.028 69.9946 245.291 73.3218 248.007C77.3553 251.411 80.7747 255.464 83.435 259.994C86.5316 265.307 88.5445 271.164 89.3605 277.238C90.3194 284.077 89.7681 291.04 87.7444 297.65C85.4879 304.897 81.4809 311.496 76.0673 316.881L76.1715 316.436C78.361 323.097 80.6373 330.032 83.0006 337.173L83.3307 338.218L82.3403 337.721L60.4282 326.779H60.8105L59.2466 327.344C54.136 329.116 48.7225 329.884 43.3121 329.604C38.0603 329.407 32.892 328.246 28.0728 326.179C18.88 322.299 11.2316 315.556 6.29972 306.983C4.03017 303.024 2.37272 298.753 1.3821 294.311C1.11083 293.246 0.907706 292.165 0.773921 291.075C0.634907 289.996 0.409013 288.934 0.356883 287.872C-0.113404 281.779 0.540084 275.653 2.2857 269.789C3.38315 266.266 4.90582 262.885 6.82103 259.72C10.0637 254.233 14.4527 249.487 19.6972 245.798C23.6584 243.037 28.0563 240.943 32.7123 239.599L35.4405 238.914C36.2434 238.73 37.0554 238.588 37.8732 238.486C39.1411 238.254 40.4248 238.117 41.7135 238.075L44.0941 237.989C44.3648 237.953 44.6377 237.936 44.9108 237.938Z" fill="#C996CC"/>
<path d="M54.8157 277.872H51.601L44.6503 268.248V261.929C44.6503 261.929 39.6805 261.621 40.2713 269.892C40.8621 278.163 40.2713 276.057 40.2713 276.057C40.2713 276.057 29.7236 276.057 28.8548 276.998C27.986 277.94 27.9338 287.975 27.8122 293.575C27.7456 294.925 28.1386 296.258 28.9289 297.362C29.7191 298.467 30.8612 299.279 32.1738 299.671C32.5417 299.771 32.9215 299.823 33.3033 299.825C35.9445 299.825 49.3767 297.719 49.3767 297.719H54.9199L54.8157 277.872Z" fill="#C996CC"/>
<path d="M64.0079 276.176L62.0269 297.821H56.5359V276.622L64.0079 276.176Z" fill="#C996CC"/>
</svg>
