<svg xmlns="http://www.w3.org/2000/svg" width="31" height="29" viewBox="0 0 31 29" fill="none">
  <path class='star' d="M30.102 10.8894C29.9575 10.441 29.6918 10.0414 29.3341 9.73467C28.9765 9.42798 28.541 9.22624 28.0758 9.15176L20.7762 7.96547L17.3924 1.3898C17.1768 0.971182 16.8501 0.620026 16.4481 0.374862C16.0462 0.129698 15.5844 0 15.1136 0C14.6427 0 14.1809 0.129698 13.779 0.374862C13.377 0.620026 13.0503 0.971182 12.8347 1.3898L9.45086 7.96547L2.15139 9.15176C1.68667 9.2274 1.25176 9.42959 0.894376 9.73614C0.536997 10.0427 0.270961 10.4418 0.125458 10.8895C-0.0200447 11.3373 -0.0393913 11.8166 0.0695408 12.2746C0.178473 12.7327 0.411474 13.1519 0.74298 13.4863L5.95117 18.7365L4.82388 26.0453C4.75155 26.5108 4.809 26.9873 4.98992 27.4223C5.17084 27.8572 5.46821 28.2339 5.84934 28.5108C6.23047 28.7877 6.68059 28.9542 7.15019 28.9918C7.61979 29.0295 8.09067 28.9369 8.51105 28.7242L15.1136 25.3934L21.7162 28.7242C22.1367 28.9364 22.6074 29.0287 23.0768 28.9908C23.5462 28.953 23.9962 28.7865 24.3772 28.5097C24.7581 28.2329 25.0555 27.8565 25.2365 27.4217C25.4176 26.987 25.4753 26.5107 25.4034 26.0453L24.2761 18.7365L29.4843 13.4863C29.8169 13.1526 30.0506 12.7333 30.1596 12.275C30.2686 11.8167 30.2487 11.3371 30.102 10.8894ZM28.0534 12.0671L22.1292 18.0391L23.4116 26.3527C23.4275 26.4523 23.4156 26.5543 23.377 26.6475C23.3385 26.7406 23.2749 26.8213 23.1934 26.8806C23.1118 26.9399 23.0154 26.9754 22.9149 26.9832C22.8144 26.9911 22.7136 26.9709 22.6239 26.925L15.1136 23.1362L7.60318 26.9252C7.5134 26.9711 7.41267 26.9912 7.31215 26.9833C7.21163 26.9755 7.11525 26.94 7.03368 26.8807C6.95211 26.8215 6.88854 26.7408 6.85001 26.6476C6.81148 26.5544 6.7995 26.4524 6.8154 26.3528L8.09793 18.0391L2.17375 12.067C2.10301 11.9956 2.0533 11.906 2.03007 11.8081C2.00684 11.7103 2.01099 11.6079 2.04207 11.5123C2.07314 11.4166 2.12994 11.3314 2.20625 11.2659C2.28255 11.2004 2.37541 11.1571 2.47466 11.1409L10.7776 9.79155L14.6267 2.31197C14.6727 2.2225 14.7425 2.14745 14.8284 2.09504C14.9143 2.04264 15.0129 2.01491 15.1136 2.01491C15.2142 2.01491 15.3128 2.04264 15.3987 2.09504C15.4846 2.14745 15.5544 2.2225 15.6004 2.31197L19.4495 9.79155L27.7524 11.1409C27.8517 11.1571 27.9446 11.2004 28.0209 11.2659C28.0972 11.3314 28.154 11.4166 28.185 11.5123C28.2161 11.6079 28.2203 11.7103 28.197 11.8081C28.1738 11.906 28.1241 11.9956 28.0533 12.067L28.0534 12.0671Z" fill="#5C7E92"/>
</svg>