<svg xmlns="http://www.w3.org/2000/svg" width="18" height="21" viewBox="0 0 18 21" fill="none">
  <path class="user" d="M8.875 10.1429C11.6762 10.1429 13.9464 7.8726 13.9464 5.07143C13.9464 2.27026 11.6762 0 8.875 0C6.07383 0 3.80357 2.27026 3.80357 5.07143C3.80357 7.8726 6.07383 10.1429 8.875 10.1429ZM12.425 11.4107H11.7633C10.8838 11.8148 9.90513 12.0446 8.875 12.0446C7.84487 12.0446 6.8702 11.8148 5.98666 11.4107H5.325C2.38516 11.4107 0 13.7959 0 16.7357V18.3839C0 19.4339 0.851842 20.2857 1.90179 20.2857H15.8482C16.8982 20.2857 17.75 19.4339 17.75 18.3839V16.7357C17.75 13.7959 15.3648 11.4107 12.425 11.4107Z" fill="#5C7E92"/>
</svg>